<?xml version="1.0" encoding="iso-8859-1"?>
<!-- Generator: Adobe Illustrator 18.0.0, SVG Export Plug-In . SVG Version: 6.00 Build 0)  -->
<!DOCTYPE svg PUBLIC "-//W3C//DTD SVG 1.1//EN" "http://www.w3.org/Graphics/SVG/1.1/DTD/svg11.dtd">
<svg version="1.1" id="_x32_" xmlns="http://www.w3.org/2000/svg" xmlns:xlink="http://www.w3.org/1999/xlink" x="0px" y="0px"
	 viewBox="0 0 512 512" style="enable-background:new 0 0 512 512;" xml:space="preserve">
<g>
	<rect style="fill:#9CD1AB;" width="512" height="512"/>
	<polygon style="opacity:0.1;fill:#040000;" points="512,272.23 512,512 272.23,512 97.536,337.305 97.536,171.008 151.603,140.441 
		151.654,140.441 201.677,112.179 256,81.51 406.016,166.247 412.109,172.339 414.464,174.694 	"/>
	<g>
		<polygon style="fill:#CDA23A;" points="97.523,171.031 97.523,340.969 256,430.486 256,81.514 		"/>
		<polygon style="fill:#C0932F;" points="414.485,171.031 414.485,340.969 360.179,371.656 309.986,400.004 256,430.494 256,81.506 
					"/>
		<polygon style="fill:#E0B040;" points="414.485,171.031 360.179,201.718 360.007,201.817 309.986,201.817 309.986,230.066 
			256,260.556 97.514,171.031 151.599,140.467 201.669,112.193 256,81.506 		"/>
		<g>
			<polygon style="fill:#EAC46B;" points="360.179,201.718 310.109,229.992 151.599,140.467 201.669,112.193 			"/>
		</g>
		<g>
			<polygon style="fill:#D2A453;" points="360.179,201.817 360.179,282.993 309.986,311.34 309.986,230.066 310.109,229.992 
				360.007,201.817 			"/>
		</g>
		<g style="opacity:0.1;">
			<g>
				<path style="fill:#040000;" d="M208.537,392.075L133.69,350.89l1.385-98.887l80.217,39.854L208.537,392.075z M139.762,346.497
					l62.882,34.34l5.246-83.625l-66.628-33.413L139.762,346.497z"/>
			</g>
			<g>
				<path style="fill:#040000;" d="M197.169,303.105l-0.625,11.193c-0.923,16.533-11.996,24.191-24.605,17.519
					c-12.444-6.585-22.09-24.885-21.69-41.282l0.271-11.096l9.521,4.83l0.894,19.572l10.984-13.546L197.169,303.105z"/>
				<polygon style="fill:#040000;" points="174.781,348.174 167.962,344.512 168.45,331.464 175.332,335.111 				"/>
				<polygon style="fill:#040000;" points="182.741,359.799 159.561,347.264 159.879,337.247 183.224,349.746 				"/>
			</g>
		</g>
	</g>
	<polygon style="opacity:0.05;fill:#171716;" points="256,81.506 256,430.486 256,430.494 309.986,400.004 360.179,371.656 
		414.485,340.969 414.485,171.031 	"/>
</g>
</svg>
