<?xml version="1.0" encoding="iso-8859-1"?>
<!-- Generator: Adobe Illustrator 18.0.0, SVG Export Plug-In . SVG Version: 6.00 Build 0)  -->
<!DOCTYPE svg PUBLIC "-//W3C//DTD SVG 1.1//EN" "http://www.w3.org/Graphics/SVG/1.1/DTD/svg11.dtd">
<svg version="1.1" id="_x32_" xmlns="http://www.w3.org/2000/svg" xmlns:xlink="http://www.w3.org/1999/xlink" x="0px" y="0px"
	 viewBox="0 0 512 512" style="enable-background:new 0 0 512 512;" xml:space="preserve">
<g>
	<rect style="fill:#DEE49E;" width="512" height="512"/>
	<path style="opacity:0.15;fill:#040000;" d="M512,225.127V512H229.325l-98.714-98.713l-31.949-31.949
		c-1.638-5.017-2.56-10.342-2.56-15.922v-91.802l12.698-12.698l100.71-100.711l19.251-19.251l44.851-44.851h91.802
		c8.397,0,16.281,2.048,23.245,5.684l21.606,21.606L512,225.127z"/>
	<g>
		<path style="fill:#A8B56D;" d="M415.898,146.535v218.88c0,27.852-22.631,50.482-50.483,50.482H146.586
			c-5.581,0-10.957-0.921-15.974-2.611c-15.053-5.018-26.931-16.896-31.949-31.949c-1.638-5.017-2.56-10.342-2.56-15.922v-218.88
			c0-27.802,22.63-50.433,50.483-50.433h218.829c8.397,0,16.281,2.048,23.245,5.684c9.216,4.813,16.793,12.39,21.606,21.606
			C413.85,130.304,415.898,138.189,415.898,146.535z"/>
		<path style="fill:#FFFFFF;" d="M108.823,365.428c0,20.757,16.983,37.74,37.74,37.74h218.874c20.757,0,37.739-16.983,37.739-37.74
			V262.5H108.823V365.428z"/>
		<path style="fill:#F4F4F5;" d="M365.437,108.815H146.563c-20.757,0-37.74,16.983-37.74,37.74V262.5h294.353V146.554
			C403.177,125.798,386.194,108.815,365.437,108.815z"/>
		<g>
			<path style="fill:#FFFFFF;" d="M138.012,286.105L138.012,286.105c-5.389,0-9.798-4.409-9.798-9.798v-22.513
				c0-5.389,4.409-9.798,9.798-9.798l0,0c5.389,0,9.798,4.409,9.798,9.798v22.513C147.81,281.695,143.401,286.105,138.012,286.105z"
				/>
			<path style="fill:#FFFFFF;" d="M382.325,286.105L382.325,286.105c-5.389,0-9.798-4.409-9.798-9.798v-22.513
				c0-5.389,4.409-9.798,9.798-9.798l0,0c5.389,0,9.798,4.409,9.798,9.798v22.513C392.124,281.695,387.714,286.105,382.325,286.105z
				"/>
		</g>
		<path style="fill:none;" d="M260.974,265.05c7.426,0,12.797-4.925,15.098-9.059H247.39
			C250.43,261.689,255.13,265.05,260.974,265.05z"/>
		<path style="fill:none;" d="M277.561,241.412c0-16.38-5.598-30.895-17.416-30.895c-10.368,0-16.588,12.234-16.588,27.577
			c0,7.142,1.373,13.284,3.833,17.896h28.682c0.012-0.021,0.026-0.043,0.038-0.065C277.354,253.024,277.561,248.669,277.561,241.412
			z"/>
		<g>
			<path style="fill:#666767;" d="M274.897,262.065c-2.201,3.953-7.336,8.662-14.437,8.662c-5.588,0-10.083-3.214-12.989-8.662
				h-36.47c5.12,20.272,21.282,31.859,39.744,31.859c11.5,0,20.223-4.164,25.774-9.914l0.595,0.199
				c-5.75,25.179-22.206,35.291-40.447,37.076c-7.534,0.792-9.913,0.991-14.473,0.594v26.964c2.379,0.198,5.155,0.198,8.129,0.198
				c49.671,0,79.931-32.975,81.424-86.978H274.897z"/>
			<path style="fill:#5D5E5E;" d="M243.806,244.952c0-14.672,5.948-26.369,15.862-26.369c11.301,0,16.654,13.879,16.654,29.542
				c0,6.939-0.198,11.103-1.387,13.878c-0.011,0.02-0.025,0.042-0.036,0.062h36.851c0.039-1.396,0.063-2.802,0.063-4.225
				c0-35.49-16.853-63.644-51.153-63.644c-31.525,0-51.352,25.775-51.352,53.731c0,5.093,0.6,9.81,1.694,14.139h36.47
				C245.119,257.654,243.806,251.781,243.806,244.952z"/>
		</g>
		<g>
			<path style="fill:#BFC671;" d="M286.177,167.361h-60.353c-12.244,0-22.261-10.018-22.261-22.261l0,0
				c0-12.244,10.018-22.261,22.261-22.261h60.353c12.244,0,22.261,10.018,22.261,22.261l0,0
				C308.438,157.343,298.42,167.361,286.177,167.361z"/>
			<g>
				<path style="fill:#FFFFFF;" d="M249.242,134.861h-4.403l-3.379,8.55c-0.922,2.406-1.639,4.608-2.253,6.708h-0.102
					c-0.563-2.15-1.28-4.301-2.099-6.708l-3.021-7.68l-0.307-0.87h-4.403l-0.512,6.092l-1.075,13.415h3.328l0.512-8.09
					c0.205-2.714,0.358-5.786,0.409-8.192h0.102c0.563,2.355,1.434,4.864,2.355,7.424l3.226,8.653h2.662l3.431-8.806
					c1.024-2.509,1.894-4.967,2.611-7.271h0.103c-0.051,2.406,0.154,5.427,0.307,8.038l0.512,8.244h3.43L249.242,134.861z"/>
				<path style="fill:#FFFFFF;" d="M266.496,150.989v-5.273c0-2.969-1.331-5.683-6.297-5.683c-2.253,0-4.25,0.512-5.427,1.126
					l0.717,1.997c1.075-0.614,2.611-0.973,4.096-0.973c3.379,0,3.379,2.099,3.379,3.124c-5.734,0-9.369,1.741-9.369,5.222
					c0,2.15,1.792,4.096,4.915,4.096c2.099,0,3.789-0.819,4.711-1.894h0.102l0.256,1.639h3.174
					C266.547,153.447,266.496,152.217,266.496,150.989z M263.066,149.607c0,1.638-1.587,2.867-3.533,2.867
					c-1.28,0-2.458-0.716-2.458-2.253c0-2.509,3.226-2.919,5.99-2.919V149.607z"/>
				<path style="fill:#FFFFFF;" d="M280.576,140.339l-2.713,7.885c-0.307,0.922-0.666,1.946-0.922,2.764h-0.051
					c-0.256-0.819-0.614-1.842-0.922-2.764l-3.072-7.885h-3.891l5.785,12.902c0.154,0.307,0.205,0.461,0.205,0.614
					c0,0.41-1.331,3.226-5.018,4.353l0.922,2.458c0.819-0.154,2.406-0.615,3.942-1.793c1.997-1.638,3.431-4.249,5.376-8.806
					l4.096-9.728H280.576z"/>
			</g>
		</g>
		<g>
			<path style="fill:#646363;" d="M137.441,284.427L137.441,284.427c-5.389,0-9.798-4.409-9.798-9.798v-22.513
				c0-5.389,4.409-9.798,9.798-9.798l0,0c5.389,0,9.798,4.409,9.798,9.798v22.513C147.239,280.018,142.83,284.427,137.441,284.427z"
				/>
			<path style="fill:#646363;" d="M381.754,284.427L381.754,284.427c-5.389,0-9.798-4.409-9.798-9.798v-22.513
				c0-5.389,4.409-9.798,9.798-9.798l0,0c5.389,0,9.798,4.409,9.798,9.798v22.513C391.552,280.018,387.143,284.427,381.754,284.427z
				"/>
		</g>
	</g>
</g>
</svg>
