<?xml version="1.0" encoding="iso-8859-1"?>
<!-- Generator: Adobe Illustrator 18.0.0, SVG Export Plug-In . SVG Version: 6.00 Build 0)  -->
<!DOCTYPE svg PUBLIC "-//W3C//DTD SVG 1.1//EN" "http://www.w3.org/Graphics/SVG/1.1/DTD/svg11.dtd">
<svg version="1.1" id="_x33_" xmlns="http://www.w3.org/2000/svg" xmlns:xlink="http://www.w3.org/1999/xlink" x="0px" y="0px"
	 viewBox="0 0 512 512" style="enable-background:new 0 0 512 512;" xml:space="preserve">
<g>
	<rect style="fill:#DEE49E;" width="512" height="512"/>
	<path style="opacity:0.1;fill:#040000;" d="M512,271.411V512H239.974L139.827,411.853c0,0-0.051-0.051-0.102-0.051l-11.93-11.981
		c-1.792-3.481-2.816-7.423-2.816-11.621l-0.154-1.024l-24.678-144.231l-1.178-6.706c-0.973-0.923-1.843-1.895-2.56-2.97
		c-0.358-0.512-0.717-1.075-1.024-1.588c-0.665-1.126-1.229-2.304-1.587-3.532c-0.102-0.308-0.205-0.666-0.256-0.973
		c-0.153-0.359-0.256-0.717-0.307-1.128c-0.256-1.229-0.41-2.509-0.41-3.84v-48.333h57.242l62.208-64.819
		c0.768-0.819,1.638-1.536,2.509-2.099c0.871-0.666,1.792-1.127,2.765-1.537c3.738-1.586,8.038-1.586,11.827-0.101
		c1.843,0.716,3.584,1.791,5.12,3.276c6.298,6.042,6.502,16.025,0.461,22.272l-41.267,43.008h121.6l-48.179-50.228
		c-6.042-6.298-5.837-16.281,0.461-22.271c6.247-6.041,16.231-5.837,22.221,0.461l58.982,61.388l10.189,10.65h55.501L512,271.411z"
		/>
	<g>
		<g>
			<g>
				<rect x="133.925" y="309.291" style="fill:#FDFEFE;" width="243.275" height="20.998"/>
			</g>
			<g>
				<g>
					<rect x="245.063" y="251.813" style="fill:#FDFEFE;" width="20.998" height="133.985"/>
				</g>
				<g>
					<rect x="192.568" y="251.813" style="fill:#FDFEFE;" width="20.998" height="133.985"/>
				</g>
				<g>
					<rect x="297.558" y="253.782" style="fill:#FDFEFE;" width="20.998" height="133.984"/>
				</g>
			</g>
			<g>
				<path style="fill:#FFFFFF;" d="M96.973,224.563l1.997,11.572v0.103l1.178,6.706l24.678,144.231l0.154,1.024
					c0,4.199,1.024,8.14,2.816,11.621c2.56,5.12,6.758,9.319,11.93,11.981c0.051,0,0.102,0.051,0.102,0.051
					c3.993,2.047,8.55,3.175,13.363,3.175h204.697c15.616,0,28.263-11.981,28.263-26.829l24.678-144.281l1.177-6.81l2.15-12.545
					H96.973z M348.365,375.655h-185.6l-3.84-22.58l-3.891-22.784l-3.635-20.992l-7.731-45.362h223.795l-7.731,45.362l-3.635,20.992
					L348.365,375.655z"/>
			</g>
			<g>
				<path style="fill:#DDDDDE;" d="M414.157,224.563l-2.15,12.545l-1.177,6.81c-4.352,3.89-10.087,6.195-16.333,6.195H117.504
					c-6.809,0-12.902-2.714-17.357-7.169l-1.178-6.706v-0.103l-1.997-11.572H414.157z"/>
			</g>
			<g>
				<g>
					<path style="fill:#42351D;" d="M372.787,200.193c-0.768,2.406-2.151,4.659-4.096,6.552c-6.246,6.043-16.23,5.838-22.272-0.46
						l-19.917-20.788l-11.213-11.622l-48.179-50.228c-6.042-6.298-5.837-16.281,0.461-22.271c6.247-6.041,16.231-5.837,22.221,0.461
						l58.982,61.388l10.189,10.65l10.189,10.599C373.299,188.775,374.477,194.867,372.787,200.193z"/>
				</g>
			</g>
			<g>
				<g>
					<path style="fill:#42351D;" d="M234.957,130.867l-41.267,43.008l-38.042,39.629c-6.042,6.298-16.026,6.503-22.272,0.461
						c-1.946-1.844-3.328-4.147-4.096-6.554c-1.69-5.325-0.512-11.366,3.635-15.719l17.101-17.818h0.051l62.208-64.819
						c0.768-0.819,1.638-1.536,2.509-2.099c0.871-0.615,1.792-1.127,2.765-1.537c3.789-1.535,8.038-1.586,11.827-0.101
						c1.843,0.716,3.584,1.791,5.12,3.276C240.793,114.637,240.998,124.62,234.957,130.867z"/>
				</g>
			</g>
			<path style="fill:#7CC27C;" d="M419.174,173.875v48.333c0,6.042-2.816,11.417-7.168,14.9c-3.277,2.611-7.424,4.197-11.93,4.197
				H111.974c-5.018,0-9.574-1.945-13.005-5.067c-0.973-0.923-1.843-1.895-2.56-2.97c-0.358-0.512-0.717-1.075-1.024-1.588
				c-0.665-1.126-1.229-2.304-1.587-3.532c-0.102-0.308-0.205-0.666-0.256-0.973c-0.153-0.359-0.256-0.717-0.307-1.128
				c-0.256-1.229-0.41-2.509-0.41-3.84v-48.333H419.174z"/>
		</g>
		<path style="opacity:0.12;fill:#FFFFFF;" d="M289.792,101.838c-5.99-6.299-15.974-6.503-22.221-0.461
			c-6.297,5.99-6.502,15.974-0.461,22.271l48.179,50.228h-121.6l41.267-43.008c6.042-6.247,5.837-16.23-0.461-22.272
			c-1.536-1.485-3.277-2.56-5.12-3.276c-3.789-1.485-8.09-1.485-11.827,0.101c-0.973,0.41-1.894,0.871-2.765,1.537
			c-0.87,0.563-1.741,1.28-2.509,2.099l-62.208,64.819H92.825v48.333c0,1.331,0.154,2.611,0.41,3.84
			c0.051,0.41,0.154,0.769,0.307,1.128c0.051,0.306,0.154,0.665,0.256,0.973c0.41,1.229,0.922,2.406,1.587,3.532
			c0.307,0.513,0.666,1.075,1.024,1.588c0.768,1.024,1.638,1.996,2.56,2.867v0.103l1.178,6.706l24.678,144.231l34.099-34.1
			l-3.891-22.784h26.675l10.854-10.854l10.137-10.139l10.854-10.854v-34.509h31.488v3.021l3.021-3.021l13.824-13.824l8.807-8.808
			l16.742-16.742l50.688-50.688l10.65-10.65L289.792,101.838z M192.563,309.299h-41.165l-7.731-45.362h48.896V309.299z"/>
	</g>
</g>
</svg>
