<?xml version="1.0" encoding="iso-8859-1"?>
<!-- Generator: Adobe Illustrator 18.0.0, SVG Export Plug-In . SVG Version: 6.00 Build 0)  -->
<!DOCTYPE svg PUBLIC "-//W3C//DTD SVG 1.1//EN" "http://www.w3.org/Graphics/SVG/1.1/DTD/svg11.dtd">
<svg version="1.1" id="_x33_" xmlns="http://www.w3.org/2000/svg" xmlns:xlink="http://www.w3.org/1999/xlink" x="0px" y="0px"
	 viewBox="0 0 512 512" style="enable-background:new 0 0 512 512;" xml:space="preserve">
<g>
	<rect style="fill:#DEE49E;" width="512" height="512"/>
	<path style="opacity:0.1;fill:#040000;" d="M512,306.944V512H287.898L168.09,392.192l-61.798-61.798
		c-5.888-11.827-10.65-25.343-14.029-40.55l125.389-125.389l9.114-9.062l7.782-7.834l4.672-4.672l2.752-5.624l24,22.105
		l34.56-30.689l17.779-15.424l8.09,8.09l49.459,49.459l38.246,38.247L512,306.944z"/>
	<g>
		<path style="fill:#F18A33;" d="M256,198.912v181.555c-17.459,21.146-53.504,26.829-87.91,11.725
			c-23.552-10.291-46.336-30.31-61.798-61.798c-5.888-11.827-10.65-25.343-14.029-40.55c-1.229-5.376-2.304-11.008-3.123-16.845
			c-10.598-73.165,40.038-107.161,77.978-112.333c21.35-2.918,37.888-0.717,50.534,3.789c17.766,6.349,27.955,17.203,33.28,25.088
			C254.618,194.97,256,198.912,256,198.912z"/>
		<path style="fill:#D15216;" d="M256,198.927c0,0,16.822-48.033,88.898-38.245c37.904,5.148,88.538,39.153,77.964,112.323
			C404.168,402.368,291.509,423.514,256,380.452V198.927z"/>
		<path style="fill:#59463B;" d="M326.019,119.949c-1.636-4.525-4.361-5.766-7.998-6.804c-2.646-0.755-11.036-3.225-23.579,8.719
			c-5.068,4.826-15.888,16.776-19.892,21.995c-4.2,4.414-7.993,9.276-11.275,14.519c-12.862,20.548-17.147,45.41-12.066,70.007
			c0.41,1.982,2.11,3.367,4.043,3.457c0.356,0.017,0.718-0.011,1.083-0.086c2.346-0.484,3.855-2.78,3.371-5.126
			c-8-38.729,9.353-71.283,34.593-88.234c0.863-0.371,1.674-0.674,2.393-0.877c7.678-2.172,13.854-3.152,23.089-3.29
			C327.605,134.114,327.573,124.25,326.019,119.949z"/>
		
			<ellipse transform="matrix(0.751 0.6603 -0.6603 0.751 171.845 -42.139)" style="opacity:0.74;fill:#FEFDEE;" cx="141.8" cy="206.802" rx="22.05" ry="37.987"/>
		<g>
			<path style="fill:#FAF5B9;" d="M228.257,229.259c-1.693-1.694-4.441-1.694-6.134,0c-1.695,1.694-1.695,4.44,0,6.134
				c9.502,9.502,21.878,14.294,34.023,14.294c0.026,0,0.051-0.001,0.077-0.001v-8.674
				C246.278,241.032,236.089,237.092,228.257,229.259z"/>
			<path style="fill:#DCD7A7;" d="M286.986,230.989c-1.693-1.694-4.441-1.694-6.134,0c-6.69,6.69-15.558,10.003-24.629,10.022v8.674
				c11.295-0.019,22.384-4.182,30.763-12.562C288.68,235.429,288.68,232.683,286.986,230.989z"/>
		</g>
		<g>
			<path style="fill:#60A567;" d="M252.883,157.981c0.561-0.503-16.104-58.104-70.159-42.736
				C185.775,160.061,252.883,157.981,252.883,157.981z"/>
			<path style="fill:#FCF2C7;" d="M188.651,118.463c0,0,36.46,17.868,59.382,37.599L188.651,118.463z"/>
			<path style="fill:#FCF2C7;" d="M233.13,143.107c-3.168-11.505-5.93-19.622-6.104-20.12l4.249,18.807l0.527,2.364l1.951,1.238
				C233.549,144.621,233.337,143.852,233.13,143.107z"/>
			<path style="fill:#FCF2C7;" d="M221.325,136.079c-3.168-11.505-5.929-19.622-6.104-20.12l4.249,18.807l0.527,2.364l1.951,1.238
				C221.744,137.593,221.532,136.824,221.325,136.079z"/>
			<path style="fill:#FCF2C7;" d="M226.046,143.076c-11.768,1.977-20.293,2.895-20.818,2.947l18.845-4.076l2.365-0.519l1.946,1.247
				C227.595,142.817,226.809,142.949,226.046,143.076z"/>
			<path style="fill:#FCF2C7;" d="M214.696,135.334c-11.768,1.977-20.293,2.895-20.818,2.946l18.846-4.076l2.365-0.518l1.946,1.247
				C216.246,135.075,215.459,135.207,214.696,135.334z"/>
		</g>
	</g>
</g>
</svg>
