<?xml version="1.0" encoding="iso-8859-1"?>
<!-- Generator: Adobe Illustrator 18.0.0, SVG Export Plug-In . SVG Version: 6.00 Build 0)  -->
<!DOCTYPE svg PUBLIC "-//W3C//DTD SVG 1.1//EN" "http://www.w3.org/Graphics/SVG/1.1/DTD/svg11.dtd">
<svg version="1.1" id="_x32_" xmlns="http://www.w3.org/2000/svg" xmlns:xlink="http://www.w3.org/1999/xlink" x="0px" y="0px"
	 viewBox="0 0 512 512" style="enable-background:new 0 0 512 512;" xml:space="preserve">
<g>
	<rect style="fill:#D9DF99;" width="512" height="512"/>
	<path style="opacity:0.1;fill:#040000;" d="M512,234.445V512H195.738l-86.067-86.068V223.488l18.893-18.893l21.914-21.913
		l18.022-18.022l8.448-8.448l18.278-18.278l6.861-6.861l7.322-7.322l10.752-10.752l0.819-0.819l2.509-2.509l15.155-15.104
		c0.051-0.051-5.99-6.485-7.643-12.68l12.237,0.188l19.368-11.521c14.797,3.482,25.753,16.589,26.265,32.307
		c0.051,0.358,0.051,0.768,0.051,1.127c0,1.433-0.102,2.867-0.256,4.249c-0.051,0.512-0.153,0.973-0.256,1.434h40.141l-0.665,3.328
		h62.669l11.725,11.725L512,234.445z"/>
	<g>
		<path style="fill:#DFCB9D;" d="M402.278,124.365v306.739c0,6.247-5.12,11.367-11.366,11.367H121.037
			c-6.247,0-11.367-5.12-11.367-11.367V124.365c0-6.247,5.12-11.367,11.367-11.367h269.875
			C397.158,112.998,402.278,118.118,402.278,124.365z"/>
		<rect x="128.555" y="131.094" style="fill:#FFFFFF;" width="251.097" height="291.765"/>
		<g>
			<g>
				<path style="fill:#E0E0E0;" d="M288.87,102.861c-0.512-15.718-11.469-28.826-26.265-32.307c-2.202-0.563-4.455-0.87-6.81-0.973
					c-0.461-0.051-0.87-0.051-1.331-0.051h-0.256c-18.586,0.102-33.587,14.899-34.202,33.331v2.509c0,1.024,0.102,1.946,0.256,2.867
					c0.051,0.512,0.103,0.973,0.205,1.434c0.102,0.87,0.307,1.69,0.512,2.509c0.051,0.307,0.102,0.563,0.205,0.819
					c0.512,1.946,1.229,3.84,2.048,5.632c0.87,1.792,1.843,3.533,2.969,5.12c1.382,1.946,2.97,3.738,4.711,5.376
					c0.716,0.717,1.485,1.383,2.304,1.946c1.587,1.28,3.226,2.355,5.018,3.328h32.461c1.792-0.973,3.431-2.048,5.018-3.328
					c0.819-0.563,1.587-1.229,2.304-1.946c1.741-1.638,3.328-3.43,4.659-5.376c1.177-1.587,2.15-3.328,3.021-5.12
					c0.819-1.792,1.536-3.687,1.997-5.632c0.307-1.075,0.563-2.201,0.717-3.328c0.103-0.461,0.205-0.922,0.256-1.434
					c0.154-1.382,0.256-2.816,0.256-4.249C288.922,103.629,288.922,103.219,288.87,102.861z M270.49,112.998
					c-1.229,2.202-2.867,4.147-4.864,5.632c-3.072,2.355-6.963,3.789-11.161,3.789c-4.199,0-8.09-1.434-11.162-3.789
					c-1.997-1.485-3.687-3.43-4.864-5.632c-0.666-1.024-1.126-2.15-1.536-3.328c-0.154-0.461-0.307-0.922-0.41-1.434
					c-0.307-1.331-0.461-2.816-0.461-4.249c0-0.358,0-0.819,0.051-1.127c0.205-3.021,1.127-5.837,2.56-8.294
					c0.051-0.051,0.051-0.102,0.102-0.154c1.536-2.509,3.635-4.659,6.195-6.195c2.765-1.69,5.99-2.662,9.523-2.662
					c9.779,0,17.766,7.68,18.381,17.306c0.051,0.307,0.051,0.768,0.051,1.127c0,1.433-0.153,2.918-0.461,4.249
					c-0.103,0.512-0.256,0.973-0.41,1.434C271.616,110.848,271.104,111.974,270.49,112.998z"/>
			</g>
			<g>
				<polygon style="fill:#E0E0E0;" points="328.55,109.67 327.885,112.998 327.578,114.483 325.632,123.75 324.147,131.072 
					322.714,137.932 186.214,137.932 186.112,137.267 185.856,135.987 185.242,133.171 184.832,131.072 183.296,123.75 
					181.35,114.483 181.043,112.998 180.378,109.67 				"/>
				<path style="opacity:0.23;fill:#FFFFFF;" d="M180.378,109.67l0.665,3.328l0.307,1.485h0.051l1.894,9.267h142.336l1.894-9.267
					h0.051l0.307-1.485l0.665-3.328H180.378z"/>
			</g>
		</g>
		<g>
			<circle style="fill:#AFCA94;" cx="338.305" cy="385.167" r="22.187"/>
			<polygon style="fill:#FFFFFF;" points="338.305,371.381 341.727,381.913 352.801,381.913 343.842,388.422 347.264,398.953 
				338.305,392.444 329.346,398.953 332.768,388.422 323.809,381.913 334.883,381.913 			"/>
		</g>
		<rect x="235.611" y="172.103" style="fill:#E6E6E5;" width="46.08" height="9.387"/>
		<rect x="235.611" y="196.611" style="fill:#E6E6E5;" width="123.2" height="9.387"/>
		<rect x="235.611" y="221.119" style="fill:#E6E6E5;" width="123.2" height="9.387"/>
		<g>
			<rect x="159.665" y="300.311" style="fill:#E6E6E5;" width="199.147" height="9.387"/>
			<rect x="159.665" y="319.567" style="fill:#E6E6E5;" width="199.147" height="9.387"/>
			<rect x="159.665" y="344.74" style="fill:#E6E6E5;" width="199.147" height="9.387"/>
			<rect x="159.665" y="366.017" style="fill:#E6E6E5;" width="124.053" height="9.387"/>
		</g>
		<rect x="128.555" y="275.803" style="fill:#C9C9C9;" width="251.2" height="2.347"/>
		<g>
			<g>
				<polygon style="fill:#DFCB9D;" points="166.639,246.701 163.285,234.416 152.111,241.614 166.076,201.732 180.604,206.819 				
					"/>
				<polygon style="fill:#DFCB9D;" points="196.796,246.701 200.151,234.416 211.324,241.614 197.359,201.732 182.831,206.819 				
					"/>
			</g>
			<g>
				<g>
					<polygon style="fill:#E27D63;" points="181.718,187.477 181.718,187.477 181.718,187.477 					"/>
					<polygon style="fill:#E27D63;" points="181.718,187.477 181.718,187.477 181.718,187.477 					"/>
					<path style="fill:#E27D63;" d="M181.718,187.477c0,0,1.183-0.683,2.63-1.518l22.552-13.02c1.446-0.835,1.796-2.601,0.777-3.924
						l-7.496-7.496c-1.323-1.019-3.089-0.669-3.924,0.777l-13.02,22.552C182.401,186.293,181.718,187.477,181.718,187.477z"/>
					<path style="fill:#F4EEB1;" d="M210.819,187.477c1.67,0,2.846-1.353,2.614-3.007l-2.719-10.255
						c-0.652-1.537-2.369-2.112-3.815-1.277l-22.552,13.02c-1.446,0.835-1.263,1.518,0.407,1.518H210.819z"/>
					<path style="fill:#E27D63;" d="M181.718,187.477c0,0,1.183,0.683,2.629,1.518l22.552,13.02c1.446,0.835,3.163,0.26,3.815-1.277
						l2.719-10.255c0.232-1.654-0.944-3.007-2.614-3.007h-26.065C183.084,187.477,181.718,187.477,181.718,187.477L181.718,187.477z
						"/>
					<path style="fill:#E27D63;" d="M181.718,187.477L181.718,187.477L181.718,187.477z"/>
					<polygon style="fill:#E27D63;" points="181.718,187.477 181.718,187.477 181.718,187.477 					"/>
					<path style="fill:#E27D63;" d="M181.718,187.477L181.718,187.477L181.718,187.477z"/>
					<polygon style="fill:#E27D63;" points="181.718,187.477 181.718,187.477 181.718,187.477 					"/>
					<path style="fill:#F4EEB1;" d="M179.088,188.995c1.446-0.835,2.629-1.518,2.629-1.518s-1.366,0-3.036,0h-26.065
						c-1.67,0-2.846,1.353-2.614,3.007l2.719,10.255c0.652,1.537,2.369,2.112,3.815,1.277L179.088,188.995z"/>
					<path style="fill:#F4EEB1;" d="M181.718,190.513c0-1.67-0.683-1.853-1.518-0.407l-13.02,22.552
						c-0.835,1.446-0.26,3.163,1.277,3.815l10.255,2.719c1.654,0.232,3.007-0.944,3.007-2.614V190.513z"/>
					<path style="fill:#E27D63;" d="M156.536,202.015c-1.446,0.835-1.796,2.601-0.777,3.924l7.496,7.496
						c1.323,1.019,3.089,0.669,3.924-0.777l13.02-22.552c0.835-1.446,0.335-1.946-1.111-1.111L156.536,202.015z"/>
					<path style="fill:#E27D63;" d="M183.236,190.106c-0.835-1.446-1.518-1.263-1.518,0.407v26.065c0,1.67,1.353,2.846,3.007,2.614
						l10.255-2.719c1.537-0.652,2.112-2.369,1.277-3.815L183.236,190.106z"/>
					<path style="fill:#F4EEB1;" d="M196.256,162.295c0.835-1.446,0.26-3.163-1.277-3.815l-10.255-2.719
						c-1.654-0.232-3.007,0.944-3.007,2.614v26.065c0,1.67,0.683,1.853,1.518,0.407L196.256,162.295z"/>
					<path style="fill:#F4EEB1;" d="M207.676,205.939c1.019-1.323,0.669-3.089-0.777-3.924l-22.552-13.02
						c-1.446-0.835-1.946-0.335-1.111,1.111l13.02,22.552c0.835,1.446,2.601,1.796,3.924,0.777L207.676,205.939z"/>
					<path style="fill:#E27D63;" d="M181.718,158.375c0-1.67-1.353-2.846-3.007-2.614l-10.255,2.719
						c-1.537,0.652-2.112,2.369-1.277,3.815l13.02,22.552c0.835,1.446,1.518,1.263,1.518-0.407V158.375z"/>
					<path style="fill:#F4EEB1;" d="M181.718,187.477c0,0-0.683-1.183-1.518-2.629l-13.02-22.552
						c-0.835-1.446-2.601-1.796-3.924-0.777l-7.496,7.496c-1.019,1.323-0.669,3.089,0.777,3.924l22.552,13.02
						C180.534,186.793,181.717,187.477,181.718,187.477z"/>
					<path style="fill:#E27D63;" d="M156.536,172.938c-1.446-0.835-3.163-0.26-3.815,1.277l-2.719,10.255
						c-0.232,1.654,0.944,3.007,2.614,3.007h26.065c1.67,0,1.853-0.683,0.407-1.518L156.536,172.938z"/>
				</g>
				<g>
					<circle style="fill:#8E635B;" cx="181.718" cy="187.477" r="18.205"/>
				</g>
			</g>
		</g>
	</g>
	<path style="opacity:0.04;fill:#040000;" d="M390.336,112.965h-63.027l0.665-3.328h-40.141c0.103-0.461,0.205-0.922,0.256-1.434
		c0.154-1.382,0.256-2.816,0.256-4.249c0-0.358,0-0.768-0.051-1.127c-0.512-15.718-11.469-28.826-26.265-32.307
		c-2.145-0.548-4.342-0.846-6.631-0.956v16.106c9.068,0.753,16.288,8.041,16.871,17.158c0.051,0.307,0.051,0.768,0.051,1.127
		c0,1.433-0.153,2.918-0.461,4.249c-0.103,0.512-0.256,0.973-0.41,1.434h-16.051v332.8h134.938c6.246,0,11.366-5.12,11.366-11.367
		V124.331C401.702,118.085,396.582,112.965,390.336,112.965z"/>
</g>
</svg>
