<?xml version="1.0" encoding="iso-8859-1"?>
<!-- Generator: Adobe Illustrator 18.0.0, SVG Export Plug-In . SVG Version: 6.00 Build 0)  -->
<!DOCTYPE svg PUBLIC "-//W3C//DTD SVG 1.1//EN" "http://www.w3.org/Graphics/SVG/1.1/DTD/svg11.dtd">
<svg version="1.1" id="_x31_" xmlns="http://www.w3.org/2000/svg" xmlns:xlink="http://www.w3.org/1999/xlink" x="0px" y="0px"
	 viewBox="0 0 512 512" style="enable-background:new 0 0 512 512;" xml:space="preserve">
<g>
	<rect style="fill:#A0D7DC;" width="511.999" height="512"/>
	<polygon style="opacity:0.1;fill:#040000;" points="511.999,192.563 511.999,512 188.672,512 85.197,408.525 99.277,358.093 
		176.23,281.139 195.686,261.683 206.694,250.675 215.296,242.073 234.752,222.617 247.091,210.278 266.547,190.822 
		284.671,172.697 311.296,146.074 358.707,98.662 418.099,98.662 425.42,105.984 	"/>
	<g>
		<polygon style="fill:#E5A864;" points="427.673,98.662 425.42,105.984 405.043,172.697 106.957,172.697 84.377,98.662 		"/>
		<g>
			<path style="fill:#F0BA7D;" d="M426.395,250.673H85.62c-0.699,0-1.265-0.447-1.265-0.998l22.599-75.987
				c0-0.551,0.567-0.998,1.265-0.998h295.576c0.699,0,1.265,0.447,1.265,0.998l22.599,75.987
				C427.66,250.227,427.093,250.673,426.395,250.673z"/>
		</g>
		<polygon style="fill:#E5A864;" points="405.061,328.655 106.954,328.655 84.354,250.673 427.66,250.673 		"/>
		<g>
			<path style="fill:#F0BA7D;" d="M427.121,409.373c0.304,1.082,0.356,2.405,0.117,2.94c-0.239,0.535-2.379,0.973-3.502,0.973
				H88.315c-1.124,0-2.469-0.196-2.99-0.436c-0.521-0.24-0.763-2.144-0.537-2.918c0.225-0.774,0.657-2.293,0.959-3.375
				l12.981-46.497c0.302-1.082,0.798-2.853,1.101-3.935l6.577-23.458c0.303-1.082,0.747-2.393,0.987-2.914
				c0.239-0.521,2.379-0.947,3.502-0.947h290.211c1.124,0,2.469,0.184,2.99,0.409c0.521,0.225,1.196,2.37,1.499,3.452
				L427.121,409.373z"/>
		</g>
		<g style="opacity:0.68;">
			<path style="fill:#B17E54;" d="M224.438,149.269h-89.981c-1.885,0-3.413-1.528-3.413-3.413v-15.097
				c0-1.885,1.528-3.413,3.413-3.413h89.981c1.885,0,3.413,1.528,3.413,3.413v15.097
				C227.851,147.741,226.323,149.269,224.438,149.269z"/>
		</g>
		<g style="opacity:0.68;">
			<path style="fill:#CA9059;" d="M369.511,210.275H140.764c-1.885,0-3.413-1.528-3.413-3.413v-12.627
				c0-1.885,1.528-3.413,3.413-3.413h228.747c1.885,0,3.413,1.528,3.413,3.413v12.627
				C372.924,208.746,371.396,210.275,369.511,210.275z"/>
		</g>
		<g style="opacity:0.68;">
			<path style="fill:#D4995E;" d="M377.558,242.088H134.457c-1.885,0-3.413-1.528-3.413-3.413v-12.627
				c0-1.885,1.528-3.413,3.413-3.413h243.101c1.885,0,3.413,1.528,3.413,3.413v12.627
				C380.971,240.56,379.443,242.088,377.558,242.088z"/>
		</g>
		<g style="opacity:0.68;">
			<path style="fill:#B17E54;" d="M377.558,281.162H134.457c-1.885,0-3.413-1.528-3.413-3.413v-12.627
				c0-1.885,1.528-3.413,3.413-3.413h243.101c1.885,0,3.413,1.528,3.413,3.413v12.627
				C380.971,279.634,379.443,281.162,377.558,281.162z"/>
		</g>
		<g style="opacity:0.68;">
			<path style="fill:#B17E54;" d="M367.454,316.143H138.707c-1.885,0-3.413-1.528-3.413-3.413v-12.627
				c0-1.885,1.528-3.413,3.413-3.413h228.747c1.885,0,3.413,1.528,3.413,3.413v12.627
				C370.867,314.614,369.339,316.143,367.454,316.143z"/>
		</g>
		<g style="opacity:0.68;">
			<path style="fill:#D4995E;" d="M377.558,373.288H134.457c-1.885,0-3.413-1.528-3.413-3.413v-15.097
				c0-1.885,1.528-3.413,3.413-3.413h243.101c1.885,0,3.413,1.528,3.413,3.413v15.097
				C380.971,371.76,379.443,373.288,377.558,373.288z"/>
		</g>
		<g>
			<path style="fill:#C7916B;" d="M365.875,98.662c-0.973,19.712-17.254,35.379-37.171,35.379c-1.69,0-3.328-0.103-4.967-0.41
				c-17.613-2.253-31.334-16.947-32.205-34.969h-15.104c0.819,21.964,15.155,40.499,34.867,47.411
				c5.427,1.946,11.315,3.021,17.408,3.021c28.211,0,51.251-22.426,52.275-50.432H365.875z"/>
		</g>
		<g>
			<path style="fill:#C7916B;" d="M352.921,98.662c-0.205,2.713-0.87,5.273-1.894,7.68c-2.457,5.734-7.014,10.291-12.749,12.749
				c-2.918,1.28-6.195,1.997-9.574,1.997c-12.749,0-23.194-9.881-24.167-22.426h-9.062c0.921,17.049,14.746,30.72,31.846,31.386
				c0.461,0.051,0.922,0.051,1.383,0.051c17.766,0,32.307-13.926,33.28-31.437H352.921z"/>
		</g>
	</g>
</g>
</svg>
